<mxfile host="app.diagrams.net" modified="2023-05-23T07:37:27.030Z" agent="Mozilla/5.0 (Windows NT 10.0; Win64; x64) AppleWebKit/537.36 (KHTML, like Gecko) Chrome/113.0.0.0 Safari/537.36 Edg/113.0.1774.50" etag="nvqf-5O-hCCG91LnvVGH" version="21.2.9" type="github">
  <diagram id="C5RBs43oDa-KdzZeNtuy" name="Page-1">
    <mxGraphModel dx="1434" dy="796" grid="1" gridSize="10" guides="1" tooltips="1" connect="1" arrows="1" fold="1" page="1" pageScale="1" pageWidth="827" pageHeight="1169" math="0" shadow="0">
      <root>
        <mxCell id="WIyWlLk6GJQsqaUBKTNV-0" />
        <mxCell id="WIyWlLk6GJQsqaUBKTNV-1" parent="WIyWlLk6GJQsqaUBKTNV-0" />
        <mxCell id="brSxYRvBLm-6a5PzT_8Y-3" value="" style="edgeStyle=orthogonalEdgeStyle;rounded=0;orthogonalLoop=1;jettySize=auto;html=1;sketch=1;curveFitting=1;jiggle=2;fillColor=#60a917;strokeColor=#2D7600;" edge="1" parent="WIyWlLk6GJQsqaUBKTNV-1" source="brSxYRvBLm-6a5PzT_8Y-0" target="brSxYRvBLm-6a5PzT_8Y-1">
          <mxGeometry relative="1" as="geometry">
            <Array as="points">
              <mxPoint x="95" y="160" />
              <mxPoint x="195" y="160" />
            </Array>
          </mxGeometry>
        </mxCell>
        <mxCell id="brSxYRvBLm-6a5PzT_8Y-18" style="edgeStyle=orthogonalEdgeStyle;rounded=0;sketch=1;hachureGap=4;jiggle=2;curveFitting=1;orthogonalLoop=1;jettySize=auto;html=1;entryX=0.575;entryY=0.017;entryDx=0;entryDy=0;entryPerimeter=0;fontFamily=Architects Daughter;fontSource=https%3A%2F%2Ffonts.googleapis.com%2Fcss%3Ffamily%3DArchitects%2BDaughter;fontSize=16;fillColor=#e1d5e7;strokeColor=#9673a6;" edge="1" parent="WIyWlLk6GJQsqaUBKTNV-1" source="brSxYRvBLm-6a5PzT_8Y-0" target="brSxYRvBLm-6a5PzT_8Y-16">
          <mxGeometry relative="1" as="geometry" />
        </mxCell>
        <mxCell id="brSxYRvBLm-6a5PzT_8Y-19" value="&lt;font data-font-src=&quot;http://www.ps3000.com/fonts/%E6%96%B9%E6%AD%A3%E9%9D%99%E8%95%BE%E7%AE%80%E4%BD%93_%E5%BE%90%E9%9D%99%E8%95%BE%E6%89%8B%E5%86%99%E4%BD%93.fon&quot; face=&quot;方正徐静蕾体&quot;&gt;考核&lt;/font&gt;" style="edgeLabel;html=1;align=center;verticalAlign=middle;resizable=0;points=[];fontSize=20;fontFamily=Architects Daughter;" vertex="1" connectable="0" parent="brSxYRvBLm-6a5PzT_8Y-18">
          <mxGeometry x="0.0779" relative="1" as="geometry">
            <mxPoint as="offset" />
          </mxGeometry>
        </mxCell>
        <mxCell id="brSxYRvBLm-6a5PzT_8Y-0" value="&lt;h6&gt;&lt;font style=&quot;font-size: 21px;&quot;&gt;技术经理&lt;/font&gt;&lt;/h6&gt;" style="shape=umlActor;verticalLabelPosition=bottom;verticalAlign=top;html=1;outlineConnect=0;sketch=1;curveFitting=1;jiggle=2;fontFamily=方正徐静蕾体;fontSource=http%3A%2F%2Fwww.ps3000.com%2Ffonts%2F%25E6%2596%25B9%25E6%25AD%25A3%25E9%259D%2599%25E8%2595%25BE%25E7%25AE%2580%25E4%25BD%2593_%25E5%25BE%2590%25E9%259D%2599%25E8%2595%25BE%25E6%2589%258B%25E5%2586%2599%25E4%25BD%2593.fon;fillColor=#d5e8d4;strokeColor=#82b366;" vertex="1" parent="WIyWlLk6GJQsqaUBKTNV-1">
          <mxGeometry x="80" y="90" width="30" height="60" as="geometry" />
        </mxCell>
        <mxCell id="brSxYRvBLm-6a5PzT_8Y-15" style="edgeStyle=orthogonalEdgeStyle;rounded=0;sketch=1;hachureGap=4;jiggle=2;curveFitting=1;orthogonalLoop=1;jettySize=auto;html=1;fontFamily=Architects Daughter;fontSource=https%3A%2F%2Ffonts.googleapis.com%2Fcss%3Ffamily%3DArchitects%2BDaughter;fontSize=16;entryX=0;entryY=0.5;entryDx=0;entryDy=0;fillColor=#60a917;strokeColor=#2D7600;" edge="1" parent="WIyWlLk6GJQsqaUBKTNV-1" source="brSxYRvBLm-6a5PzT_8Y-1" target="brSxYRvBLm-6a5PzT_8Y-16">
          <mxGeometry relative="1" as="geometry">
            <mxPoint x="400" y="330" as="targetPoint" />
          </mxGeometry>
        </mxCell>
        <mxCell id="brSxYRvBLm-6a5PzT_8Y-1" value="确认考核工程师名单" style="whiteSpace=wrap;html=1;verticalAlign=top;sketch=1;curveFitting=1;jiggle=2;fontFamily=方正徐静蕾体;fontSource=http%3A%2F%2Fwww.ps3000.com%2Ffonts%2F%25E6%2596%25B9%25E6%25AD%25A3%25E9%259D%2599%25E8%2595%25BE%25E7%25AE%2580%25E4%25BD%2593_%25E5%25BE%2590%25E9%259D%2599%25E8%2595%25BE%25E6%2589%258B%25E5%2586%2599%25E4%25BD%2593.fon;fontSize=19;fontStyle=1;fillColor=#60a917;fontColor=#080808;strokeColor=#2D7600;labelBackgroundColor=none;labelBorderColor=none;" vertex="1" parent="WIyWlLk6GJQsqaUBKTNV-1">
          <mxGeometry x="135" y="240" width="120" height="50" as="geometry" />
        </mxCell>
        <mxCell id="brSxYRvBLm-6a5PzT_8Y-14" value="" style="edgeStyle=orthogonalEdgeStyle;rounded=0;orthogonalLoop=1;jettySize=auto;html=1;sketch=1;curveFitting=1;jiggle=2;fillColor=#dae8fc;strokeColor=#6c8ebf;" edge="1" parent="WIyWlLk6GJQsqaUBKTNV-1" source="brSxYRvBLm-6a5PzT_8Y-11" target="brSxYRvBLm-6a5PzT_8Y-13">
          <mxGeometry relative="1" as="geometry" />
        </mxCell>
        <mxCell id="brSxYRvBLm-6a5PzT_8Y-11" value="&lt;h6&gt;&lt;span style=&quot;font-size: 21px;&quot;&gt;管理员&lt;/span&gt;&lt;/h6&gt;" style="shape=umlActor;verticalLabelPosition=bottom;verticalAlign=top;html=1;outlineConnect=0;sketch=1;curveFitting=1;jiggle=2;fontFamily=方正徐静蕾体;fontSource=http%3A%2F%2Fwww.ps3000.com%2Ffonts%2F%25E6%2596%25B9%25E6%25AD%25A3%25E9%259D%2599%25E8%2595%25BE%25E7%25AE%2580%25E4%25BD%2593_%25E5%25BE%2590%25E9%259D%2599%25E8%2595%25BE%25E6%2589%258B%25E5%2586%2599%25E4%25BD%2593.fon;fillColor=#dae8fc;strokeColor=#6c8ebf;" vertex="1" parent="WIyWlLk6GJQsqaUBKTNV-1">
          <mxGeometry x="60" y="500" width="30" height="60" as="geometry" />
        </mxCell>
        <mxCell id="brSxYRvBLm-6a5PzT_8Y-17" style="edgeStyle=orthogonalEdgeStyle;rounded=0;sketch=1;hachureGap=4;jiggle=2;curveFitting=1;orthogonalLoop=1;jettySize=auto;html=1;entryX=0;entryY=0.5;entryDx=0;entryDy=0;fontFamily=Architects Daughter;fontSource=https%3A%2F%2Ffonts.googleapis.com%2Fcss%3Ffamily%3DArchitects%2BDaughter;fontSize=16;fillColor=#dae8fc;strokeColor=#6c8ebf;" edge="1" parent="WIyWlLk6GJQsqaUBKTNV-1" source="brSxYRvBLm-6a5PzT_8Y-13" target="brSxYRvBLm-6a5PzT_8Y-16">
          <mxGeometry relative="1" as="geometry" />
        </mxCell>
        <mxCell id="brSxYRvBLm-6a5PzT_8Y-13" value="&lt;b&gt;&lt;font style=&quot;font-size: 18px;&quot;&gt;按照职位生成考核模板&lt;/font&gt;&lt;/b&gt;" style="whiteSpace=wrap;html=1;fontFamily=方正徐静蕾体;verticalAlign=top;sketch=1;curveFitting=1;jiggle=2;fontSource=http%3A%2F%2Fwww.ps3000.com%2Ffonts%2F%25E6%2596%25B9%25E6%25AD%25A3%25E9%259D%2599%25E8%2595%25BE%25E7%25AE%2580%25E4%25BD%2593_%25E5%25BE%2590%25E9%259D%2599%25E8%2595%25BE%25E6%2589%258B%25E5%2586%2599%25E4%25BD%2593.fon;fillColor=#dae8fc;strokeColor=#6c8ebf;" vertex="1" parent="WIyWlLk6GJQsqaUBKTNV-1">
          <mxGeometry x="135" y="360" width="120" height="60" as="geometry" />
        </mxCell>
        <mxCell id="brSxYRvBLm-6a5PzT_8Y-21" value="" style="edgeStyle=orthogonalEdgeStyle;rounded=0;sketch=1;hachureGap=4;jiggle=2;curveFitting=1;orthogonalLoop=1;jettySize=auto;html=1;fontFamily=Architects Daughter;fontSource=https%3A%2F%2Ffonts.googleapis.com%2Fcss%3Ffamily%3DArchitects%2BDaughter;fontSize=16;" edge="1" parent="WIyWlLk6GJQsqaUBKTNV-1" source="brSxYRvBLm-6a5PzT_8Y-16" target="brSxYRvBLm-6a5PzT_8Y-20">
          <mxGeometry relative="1" as="geometry" />
        </mxCell>
        <mxCell id="brSxYRvBLm-6a5PzT_8Y-16" value="&lt;font data-font-src=&quot;http://www.ps3000.com/fonts/%E6%96%B9%E6%AD%A3%E9%9D%99%E8%95%BE%E7%AE%80%E4%BD%93_%E5%BE%90%E9%9D%99%E8%95%BE%E6%89%8B%E5%86%99%E4%BD%93.fon&quot; face=&quot;方正徐静蕾体&quot;&gt;生成个人考核表&lt;/font&gt;" style="shape=process;whiteSpace=wrap;html=1;backgroundOutline=1;sketch=1;hachureGap=4;jiggle=2;curveFitting=1;fontFamily=Architects Daughter;fontSource=https%3A%2F%2Ffonts.googleapis.com%2Fcss%3Ffamily%3DArchitects%2BDaughter;fontSize=20;fillColor=#f8cecc;strokeColor=#b85450;fontStyle=1" vertex="1" parent="WIyWlLk6GJQsqaUBKTNV-1">
          <mxGeometry x="460" y="290" width="120" height="60" as="geometry" />
        </mxCell>
        <mxCell id="brSxYRvBLm-6a5PzT_8Y-20" value="&lt;font data-font-src=&quot;http://www.ps3000.com/fonts/%E6%96%B9%E6%AD%A3%E9%9D%99%E8%95%BE%E7%AE%80%E4%BD%93_%E5%BE%90%E9%9D%99%E8%95%BE%E6%89%8B%E5%86%99%E4%BD%93.fon&quot; face=&quot;方正徐静蕾体&quot;&gt;形成考核报表&lt;/font&gt;" style="shape=process;whiteSpace=wrap;html=1;backgroundOutline=1;sketch=1;hachureGap=4;jiggle=2;curveFitting=1;fontFamily=Architects Daughter;fontSource=https%3A%2F%2Ffonts.googleapis.com%2Fcss%3Ffamily%3DArchitects%2BDaughter;fontSize=20;fillColor=#e3c800;strokeColor=#B09500;fontStyle=1;fontColor=#000000;" vertex="1" parent="WIyWlLk6GJQsqaUBKTNV-1">
          <mxGeometry x="460" y="430" width="120" height="60" as="geometry" />
        </mxCell>
      </root>
    </mxGraphModel>
  </diagram>
</mxfile>
